#!OML:ASF H:\Punching\Project 1\Capture day 1\Session 1\female.ASF
:FULLY-SPECIFIED
:DEGREES
1422
root 4.4087 14.3328 0.895959 15.2095 4.45566 4.68459
lowerback -5.28241 -2.44009 -5.53811
upperback -8.78934 -3.13124 1.5078
thorax -5.86483 -1.17069 4.66473
lowerneck -11.3831 6.37796 14.777
upperneck 33.1772 8.16375 -7.36661
head 14.2268 4.52102 -4.25302
rclavicle -1.19768e-014 -4.77083e-015
rhumerus 7.70561 13.7311 -54.6539
rradius 132.459
rwrist -18.1596
rhand -30.7926 4.46235
rfingers 7.12502
rthumb -4.0829 -25.4783
lclavicle -1.19768e-014 -4.77083e-015
lhumerus 6.01763 -28.5472 74.3875
lradius 137.863
lwrist 1.27583
lhand -24.8138 2.6291
lfingers 7.12502
lthumb 1.69136 32.6021
rfemur -60.169 -11.1363 7.62893
rtibia 57.0971
rfoot -8.36321 -7.57917
rtoes -16.4283
lfemur 4.53742 -12.8932 -23.6978
ltibia 20.7042
lfoot -36.9302 32.8764
ltoes -8.6283
1423
root 4.36059 14.3062 0.967657 15.1767 4.15862 4.75317
lowerback -5.40973 -2.63543 -5.74459
upperback -8.91449 -3.38465 1.56676
thorax -5.88711 -1.28008 4.83678
lowerneck -11.306 6.53277 14.8566
upperneck 33.3209 8.4613 -7.55839
head 14.3353 4.64011 -4.30209
rclavicle -1.42131e-014 -3.97569e-015
rhumerus 7.42859 13.2555 -53.6796
rradius 132.556
rwrist -18.5964
rhand -30.6747 4.15099
rfingers 7.12502
rthumb -3.96898 -25.7918
lclavicle -1.42131e-014 -3.97569e-015
lhumerus 5.94364 -28.636 74.6959
lradius 137.937
lwrist 1.16477
lhand -24.8979 2.77685
lfingers 7.12502
lthumb 1.61017 32.7505
rfemur -60.5106 -11.0275 8.04736
rtibia 57.6941
rfoot -8.38939 -7.51073
rtoes -16.4408
lfemur 5.07489 -13.1489 -23.8121
ltibia 20.5189
lfoot -37.1106 33.1692
ltoes -9.09002
1424
root 4.30976 14.2786 1.04301 15.1401 3.84678 4.83161
lowerback -5.54133 -2.8332 -5.95819
upperback -9.0419 -3.64062 1.62862
thorax -5.90683 -1.39011 5.01483
lowerneck -11.2343 6.69329 14.9189
upperneck 33.4532 8.77826 -7.76784
head 14.4443 4.7627 -4.35189
rclavicle -1.29707e-014 -1.59028e-015
rhumerus 7.20968 12.7604 -52.6455
rradius 132.627
rwrist -19.0309
rhand -30.5648 3.87007
rfingers 7.12502
rthumb -3.86287 -26.0747
lclavicle -1.29707e-014 -1.59028e-015
lhumerus 5.82931 -28.6693 74.9883
lradius 138.014
lwrist 1.02713
lhand -24.9992 2.90427
lfingers 7.12502
lthumb 1.51231 32.8787
rfemur -60.8422 -10.9115 8.50537
rtibia 58.3644
rfoot -8.38907 -7.61527
rtoes -15.7931
lfemur 5.6455 -13.3963 -23.9371
ltibia 20.3195
lfoot -37.2771 33.4407
ltoes -9.59087
1425
root 4.25612 14.2501 1.12198 15.0977 3.52221 4.91544
lowerback -5.68499 -3.02798 -6.1685
upperback -9.16394 -3.89153 1.68646
thorax -5.91308 -1.49846 5.18504
lowerneck -11.1811 6.8582 14.9746
upperneck 33.5755 9.10725 -7.99311
head 14.5571 4.88679 -4.40446
rclavicle 2.05742e-014 -3.97569e-015
rhumerus 7.03313 12.2274 -51.5632
rradius 132.673
rwrist -19.4258
rhand -30.4788 3.6469
rfingers 7.12502
rthumb -3.77982 -26.2993
lclavicle 2.05742e-014 -3.97569e-015
lhumerus 5.70062 -28.65 75.2499
lradius 138.085
lwrist 0.875828
lhand -25.106 3.02902
lfingers 7.12502
lthumb 1.40921 33.0041
rfemur -61.153 -10.7645 8.97983
rtibia 59.0976
rfoot -8.44931 -7.85941
rtoes -14.5681
lfemur 6.24676 -13.6208 -24.0633
ltibia 20.1072
lfoot -37.42 33.6783
ltoes -10.1134
1426
root 4.19951 14.2216 1.2046 15.0491 3.18455 4.99643
lowerback -5.83512 -3.2218 -6.37006
upperback -9.28843 -4.14037 1.74757
thorax -5.91704 -1.60615 5.35252
lowerneck -11.1257 7.02871 15.0186
upperneck 33.6894 9.45459 -8.23288
head 14.6707 5.01521 -4.45774
rclavicle 3.11098e-014 -3.97569e-015
rhumerus 6.89548 11.6758 -50.4437
rradius 132.684
rwrist -19.7501
rhand -30.4065 3.45004
rfingers 7.12502
rthumb -3.71 -26.4974
lclavicle 3.11098e-014 -3.97569e-015
lhumerus 5.54162 -28.5537 75.4828
lradius 138.152
lwrist 0.738524
lhand -25.2061 3.11545
lfingers 7.12502
lthumb 1.31252 33.0912
rfemur -61.4321 -10.5516 9.44395
rtibia 59.8685
rfoot -8.59242 -8.20656
rtoes -12.8035
lfemur 6.87429 -13.8004 -24.1745
ltibia 19.8812
lfoot -37.5209 33.8677
ltoes -10.6701
1427
root 4.13963 14.1937 1.29081 14.9946 2.83527 5.06754
lowerback -5.99051 -3.41023 -6.55423
upperback -9.41627 -4.38163 1.80859
thorax -5.92195 -1.71094 5.50911
lowerneck -11.0676 7.20212 15.0582
upperneck 33.7976 9.81371 -8.48447
head 14.7856 5.14647 -4.51309
rclavicle 7.55382e-015 -3.18055e-015
rhumerus 6.78376 11.1026 -49.2933
rradius 132.649
rwrist -19.9677
rhand -30.3615 3.30041
rfingers 7.12502
rthumb -3.66652 -26.6478
lclavicle 7.55382e-015 -3.18055e-015
lhumerus 5.34512 -28.3847 75.6878
lradius 138.207
lwrist 0.610018
lhand -25.3037 3.14903
lfingers 7.12502
lthumb 1.21826 33.1253
rfemur -61.6693 -10.2456 9.87578
rtibia 60.6439
rfoot -8.77124 -8.62838
rtoes -10.5645
lfemur 7.52232 -13.9196 -24.2557
ltibia 19.643
lfoot -37.5686 33.9952
ltoes -11.2545
1428
root 4.07647 14.1675 1.38074 14.9274 2.49231 5.12719
lowerback -6.14227 -3.5969 -6.71682
upperback -9.54494 -4.62073 1.87072
thorax -5.9297 -1.81575 5.65409
lowerneck -11.0028 7.38401 15.0993
upperneck 33.9007 10.1944 -8.75306
head 14.9039 5.28508 -4.57207
rclavicle 1.72943e-014 8.74653e-015
rhumerus 6.69758 10.5099 -48.1264
rradius 132.568
rwrist -20.0748
rhand -30.3093 3.14549
rfingers 7.12502
rthumb -3.61615 -26.8036
lclavicle 1.72943e-014 8.74653e-015
lhumerus 5.11787 -28.1543 75.8523
lradius 138.258
lwrist 0.487169
lhand -25.4079 3.19951
lfingers 7.12502
lthumb 1.11765 33.1763
rfemur -61.8412 -9.84861 10.2594
rtibia 61.3901
rfoot -8.9869 -9.07734
rtoes -7.9538
lfemur 8.18824 -13.9677 -24.2917
ltibia 19.399
lfoot -37.5382 34.0438
ltoes -11.8783
1429
root 4.00994 14.1429 1.47452 14.8459 2.14052 5.16864
lowerback -6.29643 -3.77616 -6.85092
upperback -9.6738 -4.84996 1.93237
thorax -5.93808 -1.91737 5.78182
lowerneck -10.9348 7.57154 15.1401
upperneck 34.0062 10.5898 -9.03015
head 15.0286 5.42889 -4.63209
rclavicle -4.57205e-014 -1.90833e-014
rhumerus 6.63487 9.91184 -46.9537
rradius 132.436
rwrist -20.0989
rhand -30.2992 3.03343
rfingers 7.12502
rthumb -3.60638 -26.9158
lclavicle -4.57205e-014 -1.90833e-014
lhumerus 4.83237 -27.8617 75.9858
lradius 138.301
lwrist 0.367677
lhand -25.5176 3.21458
lfingers 7.12502
lthumb 1.0117 33.1919
rfemur -61.9408 -9.35139 10.5983
rtibia 62.079
rfoot -9.24437 -9.53597
rtoes -5.08202
lfemur 8.86964 -13.9333 -24.2784
ltibia 19.1627
lfoot -37.4261 34.0128
ltoes -12.5548
1430
root 3.94012 14.1201 1.57221 14.7352 1.7874 5.17975
lowerback -6.45088 -3.94775 -6.94173
upperback -9.79207 -5.06906 1.99552
thorax -5.93757 -2.0173 5.88576
lowerneck -10.8621 7.76672 15.1789
upperneck 34.109 11.0034 -9.31504
head 15.1576 5.57913 -4.69178
rclavicle 6.4605e-015 7.95139e-016
rhumerus 6.60264 9.31783 -45.7917
rradius 132.254
rwrist -20.0774
rhand -30.3044 2.92426
rfingers 7.12502
rthumb -3.6114 -27.0249
lclavicle 6.4605e-015 7.95139e-016
lhumerus 4.49201 -27.5068 76.0798
lradius 138.345
lwrist 0.259179
lhand -25.6322 3.21804
lfingers 7.12502
lthumb 0.900979 33.1959
rfemur -61.9295 -8.77201 10.9133
rtibia 62.6881
rfoot -9.60005 -9.9964
rtoes -2.17506
lfemur 9.56939 -13.8049 -24.1978
ltibia 18.9583
lfoot -37.2274 33.8867
ltoes -13.2707
1431
root 3.86726 14.0992 1.67395 14.5789 1.43963 5.13926
lowerback -6.59764 -4.10964 -6.96181
upperback -9.89502 -5.27632 2.06283
thorax -5.92966 -2.11652 5.95395
lowerneck -10.7756 7.96765 15.2202
upperneck 34.2089 11.4326 -9.60829
head 15.2889 5.73557 -4.7528
rclavicle -3.60794e-014 -2.3059e-014
rhumerus 6.58532 8.73785 -44.651
rradius 132.031
rwrist -20.0661
rhand -30.3742 2.86145
rfingers 7.12502
rthumb -3.67879 -27.0865
lclavicle -3.60794e-014 -2.3059e-014
lhumerus 4.0834 -27.0857 76.132
lradius 138.391
lwrist 0.185248
lhand -25.7416 3.18079
lfingers 7.12502
lthumb 0.795269 33.1591
rfemur -61.7609 -8.12896 11.2382
rtibia 63.1993
rfoot -10.1437 -10.462
rtoes 0.431761
lfemur 10.2877 -13.58 -24.026
ltibia 18.8194
lfoot -36.9442 33.6586
ltoes -14.0237
1432
root 3.79162 14.0806 1.77964 14.3646 1.10102 5.03962
lowerback -6.72634 -4.26404 -6.90081
upperback -9.98224 -5.4758 2.13855
thorax -5.91998 -2.21738 5.98593
lowerneck -10.6695 8.17699 15.2557
upperneck 34.3127 11.8837 -9.9053
head 15.425 5.90066 -4.81097
rclavicle 1.09332e-015 5.56597e-015
rhumerus 6.58475 8.2077 -43.5439
rradius 131.767
rwrist -20.0971
rhand -30.4761 2.78557
rfingers 7.12502
rthumb -3.7772 -27.1607
lclavicle 1.09332e-015 5.56597e-015
lhumerus 3.58339 -26.5902 76.1449
lradius 138.449
lwrist 0.137466
lhand -25.8566 3.12622
lfingers 7.12502
lthumb 0.684262 33.1049
rfemur -61.3961 -7.43966 11.5886
rtibia 63.6
rfoot -10.8834 -10.929
rtoes 2.38333
lfemur 11.0143 -13.237 -23.7467
ltibia 18.7794
lfoot -36.5391 33.3324
ltoes -14.8592
1433
root 3.71344 14.065 1.88866 14.0829 0.78455 4.87955
lowerback -6.82415 -4.40993 -6.74898
upperback -10.0523 -5.66771 2.21559
thorax -5.91624 -2.32058 5.97
lowerneck -10.5342 8.39103 15.2945
upperneck 34.4216 12.35 -10.2048
head 15.5639 6.07325 -4.86894
rclavicle -2.28602e-015 2.06736e-014
rhumerus 6.58445 7.74356 -42.4818
rradius 131.462
rwrist -20.189
rhand -30.6023 2.70533
rfingers 7.12502
rthumb -3.89911 -27.2387
lclavicle -2.28602e-015 2.06736e-014
lhumerus 2.98394 -26.0342 76.1167
lradius 138.519
lwrist 0.118989
lhand -25.9611 3.06007
lfingers 7.12502
lthumb 0.58327 33.039
rfemur -60.817 -6.72652 11.9732
rtibia 63.8849
rfoot -11.7912 -11.3688
rtoes 3.58155
lfemur 11.7366 -12.7754 -23.3479
ltibia 18.8668
lfoot -35.9865 32.9041
ltoes -15.7735
1434
root 3.63313 14.0538 2.00034 13.7307 0.500109 4.6787
lowerback -6.87399 -4.55109 -6.5206
upperback -10.1115 -5.85854 2.28694
thorax -5.93442 -2.42777 5.90865
lowerneck -10.3621 8.60909 15.3378
upperneck 34.5478 12.8323 -10.5051
head 15.7104 6.25447 -4.92681
rclavicle -3.6477e-014 -2.8625e-014
rhumerus 6.57983 7.3822 -41.4827
rradius 131.108
rwrist -20.3237
rhand -30.7397 2.60638
rfingers 7.12502
rthumb -4.03177 -27.3352
lclavicle -3.6477e-014 -2.8625e-014
lhumerus 2.26732 -25.4232 76.049
lradius 138.609
lwrist 0.121042
lhand -26.0585 3.00043
lfingers 7.12502
lthumb 0.489236 32.9796
rfemur -60.0397 -6.02183 12.3851
rtibia 64.0675
rfoot -12.7828 -11.7623
rtoes 4.10681
lfemur 12.4311 -12.2039 -22.8396
ltibia 19.1095
lfoot -35.2628 32.3737
ltoes -16.7184
1435
root 3.55107 14.0486 2.11373 13.3151 0.238912 4.46872
lowerback -6.86641 -4.68802 -6.24809
upperback -10.1694 -6.04915 2.34504
thorax -5.9895 -2.53665 5.81395
lowerneck -10.1437 8.82606 15.381
upperneck 34.6978 13.3253 -10.8035
head 15.8641 6.44229 -4.98452
rclavicle -1.42131e-014 -1.59028e-014
rhumerus 6.56625 7.15702 -40.5529
rradius 130.707
rwrist -20.4848
rhand -30.9146 2.51039
rfingers 7.12502
rthumb -4.20068 -27.4279
lclavicle -1.42131e-014 -1.59028e-014
lhumerus 1.40509 -24.7597 75.9626
lradius 138.713
lwrist 0.125621
lhand -26.1301 2.93858
lfingers 7.12502
lthumb 0.420138 32.9179
rfemur -59.1203 -5.34804 12.8098
rtibia 64.1765
rfoot -13.7079 -12.1309
rtoes 4.15811
lfemur 13.0615 -11.5441 -22.2576
ltibia 19.5437
lfoot -34.3523 31.7687
ltoes -17.6354
1436
root 3.46772 14.0509 2.22759 12.8508 0.00934715 4.28749
lowerback -6.79682 -4.82441 -5.96869
upperback -10.2295 -6.24397 2.37837
thorax -6.08606 -2.64721 5.69558
lowerneck -9.88201 9.04524 15.4321
upperneck 34.8707 13.8335 -11.104
head 16.0281 6.63922 -5.04436
rclavicle -6.91771e-014 -7.95139e-016
rhumerus 6.55104 7.06336 -39.7134
rradius 130.258
rwrist -20.6532
rhand -31.0472 2.38206
rfingers 7.12502
rthumb -4.32873 -27.5537
lclavicle -6.91771e-014 -7.95139e-016
lhumerus 0.408106 -24.0686 75.8604
lradius 138.832
lwrist 0.120179
lhand -26.1824 2.93024
lfingers 7.12502
lthumb 0.369608 32.9097
rfemur -58.1176 -4.74029 13.2268
rtibia 64.2428
rfoot -14.5115 -12.465
rtoes 4.01093
lfemur 13.566 -10.8304 -21.6364
ltibia 20.2291
lfoot -33.2435 31.1095
ltoes -18.4409
